<?xml version="1.0" encoding="UTF-8"?>
<svg width="1296px" height="215px" viewBox="0 0 1296 215" version="1.1" xmlns="http://www.w3.org/2000/svg" xmlns:xlink="http://www.w3.org/1999/xlink">
    <!-- Generator: Sketch 55.2 (78181) - https://sketchapp.com -->
    <title>Method</title>
    <desc>Created with Sketch.</desc>
    <g id="Page-5" stroke="none" stroke-width="1" fill="none" fill-rule="evenodd">
        <g id="Method-Conf-Logo-Exploration" transform="translate(-594.000000, -703.000000)" fill="#2F3130">
            <g id="Method" transform="translate(594.000000, 703.000000)">
                <path d="M466.7593,4.1824 L506.8793,4.1824 C485.6263,9.3944 472.9473,21.4634 466.1853,42.7204 L466.7593,4.1824 Z M649.2883,43.2554 C642.4843,21.8574 629.5553,9.4914 608.2653,4.1824 L648.8993,4.1824 L649.2883,43.2554 Z M526.0193,210.9114 C535.6783,206.0424 538.1843,197.0804 538.1843,179.5254 L538.1843,4.1824 L577.5073,4.1824 L577.5073,179.5254 C577.5073,197.3254 580.4063,206.2044 589.1433,210.9114 L526.0193,210.9114 Z" id="Fill-96"></path>
                <path d="M1007.3945,214.4216 C1028.9445,204.3316 1047.7235,176.5596 1047.7235,110.4056 C1047.7235,36.4126 1024.9095,9.2916 1003.1285,0.2656 C1055.5425,8.3116 1091.9285,51.1986 1091.9285,108.1276 C1091.9285,163.6006 1058.2065,204.5566 1007.3945,214.4216 M960.4985,214.7446 C909.0425,205.5016 874.7735,164.3766 874.7735,108.4556 C874.7735,52.7676 908.5565,11.5766 959.5435,1.3586 C933.4875,14.5236 918.9795,52.4316 918.9795,109.7576 C918.9795,177.0946 938.4025,204.9016 960.4985,214.7446" id="Fill-98"></path>
                <path d="M799.0527,210.9929 C807.4987,206.7659 811.5987,199.4469 811.5987,185.7959 L811.5987,104.8119 L719.6557,104.8119 L719.6557,185.7959 C719.6557,199.5799 723.3817,206.8219 731.7107,210.9929 L668.2307,210.9929 C676.6037,206.8059 680.3387,199.6259 680.3387,185.7959 L680.3387,29.7869 C680.3387,16.0579 676.4487,8.5429 668.7357,4.2649 L731.2267,4.2649 C723.5367,8.5449 719.6557,16.1099 719.6557,29.7869 L719.6557,102.9509 L811.5987,102.9509 L811.5987,29.7869 C811.5987,16.1099 807.7167,8.5449 800.0277,4.2649 L862.6857,4.2649 C854.9587,8.5679 850.9147,16.1529 850.9147,29.7869 L850.9147,185.7959 C850.9147,199.6229 854.7647,206.8059 863.3877,210.9929 L799.0527,210.9929 Z" id="Fill-100"></path>
                <path d="M13.3677,174.0505 C13.3677,174.0505 10.0887,203.6915 0.6157,210.9925 L28.3907,210.9925 C21.8917,208.4125 15.5967,194.5105 13.3677,174.0505" id="Fill-102"></path>
                <path d="M0.9673,4.2654 C8.8173,8.5174 12.6313,16.0194 12.6313,29.7864 L12.8633,29.7864 L25.7753,21.6194 L106.0463,210.8284 L123.8913,167.9874 L54.8613,4.2654 L0.9673,4.2654 Z" id="Fill-104"></path>
                <path d="M186.3804,210.9929 L248.8994,210.9929 C239.8854,205.8839 236.2974,196.1419 236.2974,176.6799 L236.2974,37.2769 C236.2974,19.5399 239.4754,9.6129 248.7764,4.2649 L194.0484,4.2649 L182.2394,24.1999 L199.2604,20.6659 L199.2604,182.2159 C199.2604,197.3399 195.8884,206.0389 186.3804,210.9929" id="Fill-106"></path>
                <path d="M1203.9648,209.5896 C1216.4768,205.5286 1226.7438,197.8956 1234.6378,186.7546 C1245.3008,171.2746 1252.1578,141.2666 1252.1578,110.2346 C1252.1578,79.0386 1247.3688,54.7986 1237.9238,38.1876 C1227.9368,20.8416 1215.7658,9.9896 1200.4578,5.0436 C1260.2538,10.7386 1295.3848,47.3256 1295.3848,105.3486 C1295.3848,136.7566 1282.2398,167.0106 1260.2238,186.2776 C1246.1488,198.5066 1226.6258,206.5236 1203.9648,209.5896 L1203.9648,209.5896 Z M1103.3158,210.9926 C1111.5398,206.0256 1115.6878,197.6036 1115.6878,185.7956 L1115.6878,27.5026 C1115.6878,15.2776 1111.6668,8.3316 1104.2608,4.2656 L1165.9988,4.2656 C1156.7038,8.4256 1155.0038,17.1386 1155.0038,22.9446 L1155.0038,185.1476 C1155.0038,195.2326 1156.7598,206.4726 1168.1738,210.9926 L1103.3158,210.9926 Z" id="Fill-108"></path>
                <path d="M435.1343,40.6531 C427.6503,19.2601 414.6133,8.5071 390.1483,4.1821 L435.1343,4.1821 L435.1343,40.6531 Z M389.8633,134.6741 C383.6743,117.0751 371.9333,107.9181 352.2303,104.9021 C372.0803,101.8611 383.6533,92.9601 389.8633,75.5331 L389.8633,134.6741 Z M276.6133,210.9111 C285.9873,206.2351 289.3133,198.3321 289.3133,184.7361 L289.3133,28.7261 C289.3133,15.7821 285.3393,8.4031 277.9943,4.1821 L340.9533,4.1821 C332.4423,7.5441 328.6293,14.5981 328.6293,26.1191 L328.6293,189.2991 C328.6293,201.0951 332.7913,207.5441 340.2003,210.9111 L276.6133,210.9111 Z M394.0783,210.9111 C406.4993,207.8721 416.8293,202.6981 425.9603,195.1221 C435.0203,187.6621 440.8963,179.6711 447.2423,167.5811 L438.9093,210.9111 L394.0783,210.9111 Z" id="Fill-110"></path>
            </g>
        </g>
    </g>
</svg>